<?xml version="1.0" encoding="UTF-8"?>
<svg id="Layer_1" data-name="Layer 1" xmlns="http://www.w3.org/2000/svg" viewBox="0 0 733.39 740.96">
  <defs>
    <style>
      .cls-1 {
        fill: #fff;
      }
    </style>
  </defs>
  <path class="cls-1" d="m0,0C244.46,0,488.93,0,733.39,0c0,246.99,0,493.97,0,740.96-244.46,0-488.93,0-733.39,0C0,493.97,0,246.99,0,0Zm427.43,624.7h-167.02c2.05-5.85,3.85-11.34,5.9-16.75,13.25-35.1,26.58-70.17,39.77-105.3,1-2.68,1.55-5.69,1.56-8.55.1-43.32.08-86.63.06-129.95,0-7.91-5.12-13.06-13.01-13.14-6.84-.07-13.68-.07-20.51,0-7.69.08-12.89,5.16-12.89,12.45,0,7.24,5.22,12.26,12.95,12.41,2.77.05,5.55,0,8.41,0,.09,1.32.2,2.16.2,3,0,37.58.02,75.16-.03,112.75,0,1.54-.33,3.16-.86,4.61-5.72,15.42-11.49,30.81-17.28,46.2-8.75,23.25-17.53,46.49-26.29,69.74-9.71,25.76-19.43,51.51-29.07,77.3-1.61,4.31-3.81,8.71-4.06,13.16-.89,15.73,12.12,28.84,28.01,28.85,74.24.02,148.47,0,222.71.01,7.3,0,13.58-2.63,18.97-7.41,7.13-6.33,11.03-17.98,8.4-25.07-2.37-6.39-4.81-12.75-7.28-19.1-9.45-24.3-18.91-48.59-28.41-72.87-14.15-36.19-28.37-72.36-42.46-108.58-.94-2.43-1.49-5.17-1.5-7.77-.12-37.58-.12-75.16-.13-112.74,0-.56.25-1.12.44-1.91,3.04,0,5.96.09,8.88-.02,7.47-.27,12.71-5.34,12.82-12.29.11-6.96-4.95-12.36-12.4-12.64-7.32-.28-14.66-.27-21.97-.02-7.8.27-12.54,5.45-12.54,13.24-.01,43.44-.03,86.88.06,130.32,0,2.74.51,5.62,1.47,8.19,4.91,13.11,10.02,26.15,15.11,39.2,10.22,26.22,20.46,52.43,30.68,78.64.47,1.21.81,2.46,1.33,4.05Zm-64.32-479.6c37.22-.11,68.19-29.04,68.16-69.29-.03-38.2-29-69-68.3-69.21-38.43-.21-68.94,30.99-68.33,70.62.6,38.74,30.97,67.99,68.46,67.88Zm-62.53,102.47c22.37.51,45.96-17.23,45.75-45.75-.19-26.94-19.47-45.99-45.57-46.47-25.21-.47-45.76,20.63-45.82,46.28-.06,25.49,20.24,45.93,45.63,45.94Zm91.47,61.94c-.07-20.82-16.69-37.3-37.58-37.24-20.68.06-37.33,16.93-37.21,37.68.13,21.38,16.64,37.9,37.83,37.85,20.66-.05,37.02-17,36.95-38.29Zm-19.86,197c-.02-10.26-8.09-18.21-18.43-18.17-10.02.04-18.11,8.11-18.18,18.15-.07,10.04,8.27,18.43,18.36,18.47,10.14.04,18.27-8.19,18.25-18.44Zm-36.09-103.15c-10.19-.05-18.5,8.04-18.64,18.16-.13,9.87,8.43,18.42,18.45,18.44,10.11.02,18.34-8.27,18.32-18.43-.02-10.07-8.05-18.11-18.13-18.16Zm-16.02,178.33c-.04,10.4,7.79,18.56,17.96,18.69,10.05.13,18.44-8.15,18.52-18.28.08-10.17-8.08-18.37-18.29-18.39-10.14-.01-18.14,7.9-18.19,17.97Z"/>
  <path d="m427.43,624.7c-.52-1.59-.86-2.85-1.33-4.05-10.22-26.22-20.47-52.43-30.68-78.64-5.08-13.05-10.2-26.09-15.11-39.2-.96-2.56-1.47-5.45-1.47-8.19-.09-43.44-.07-86.88-.06-130.32,0-7.79,4.75-12.97,12.54-13.24,7.32-.25,14.66-.26,21.97.02,7.44.28,12.51,5.69,12.4,12.64-.11,6.95-5.36,12.02-12.82,12.29-2.92.1-5.84.02-8.88.02-.19.79-.44,1.35-.44,1.91,0,37.58,0,75.16.13,112.74,0,2.6.56,5.35,1.5,7.77,14.09,36.22,28.3,72.39,42.46,108.58,9.5,24.28,18.95,48.57,28.41,72.87,2.47,6.35,4.91,12.72,7.28,19.1,2.63,7.09-1.27,18.75-8.4,25.07-5.4,4.79-11.67,7.42-18.97,7.41-74.24,0-148.47,0-222.71-.01-15.89,0-28.9-13.11-28.01-28.85.25-4.45,2.45-8.85,4.06-13.16,9.64-25.79,19.36-51.54,29.07-77.3,8.76-23.25,17.54-46.49,26.29-69.74,5.79-15.39,11.57-30.78,17.28-46.2.54-1.45.86-3.07.86-4.61.05-37.58.04-75.16.03-112.75,0-.84-.11-1.67-.2-3-2.86,0-5.64.05-8.41,0-7.73-.15-12.95-5.18-12.95-12.41,0-7.3,5.21-12.38,12.89-12.45,6.84-.07,13.68-.07,20.51,0,7.89.08,13.01,5.23,13.01,13.14.02,43.32.04,86.63-.06,129.95,0,2.86-.55,5.87-1.56,8.55-13.19,35.13-26.52,70.2-39.77,105.3-2.04,5.41-3.84,10.91-5.9,16.75h167.02Z"/>
  <path d="m363.11,145.1c-37.49.11-67.87-29.14-68.46-67.88-.61-39.63,29.9-70.83,68.33-70.62,39.3.21,68.27,31.01,68.3,69.21.03,40.25-30.94,69.18-68.16,69.29Z"/>
  <path d="m300.58,247.57c-25.39-.02-45.69-20.45-45.63-45.94.06-25.65,20.61-46.75,45.82-46.28,26.09.48,45.37,19.53,45.57,46.47.2,28.53-23.38,46.27-45.75,45.75Z"/>
  <path d="m392.05,309.51c.07,21.3-16.29,38.25-36.95,38.29-21.19.05-37.7-16.47-37.83-37.85-.13-20.75,16.53-37.62,37.21-37.68,20.88-.06,37.51,16.42,37.58,37.24Z"/>
  <path d="m372.19,506.51c.02,10.26-8.11,18.48-18.25,18.44-10.09-.04-18.43-8.43-18.36-18.47.07-10.04,8.16-18.12,18.18-18.15,10.34-.04,18.4,7.92,18.43,18.17Z"/>
  <path d="m336.1,403.35c10.08.05,18.1,8.09,18.13,18.16.03,10.16-8.21,18.45-18.32,18.43-10.02-.02-18.58-8.57-18.45-18.44.14-10.12,8.44-18.21,18.64-18.16Z"/>
  <path d="m320.07,581.68c.04-10.07,8.05-17.99,18.19-17.97,10.21.01,18.37,8.21,18.29,18.39-.07,10.13-8.46,18.41-18.52,18.28-10.17-.13-18-8.28-17.96-18.69Z"/>
</svg>